<svg width="120" height="120" viewBox="0 0 120 120" xmlns="http://www.w3.org/2000/svg">
  <defs>
    <linearGradient id="orangeGradient" x1="0%" y1="0%" x2="100%" y2="100%">
      <stop offset="0%" style="stop-color:#FF8A50;stop-opacity:1" />
      <stop offset="50%" style="stop-color:#FF6B35;stop-opacity:1" />
      <stop offset="100%" style="stop-color:#E55A2B;stop-opacity:1" />
    </linearGradient>
    <linearGradient id="yellowGradient" x1="0%" y1="0%" x2="100%" y2="100%">
      <stop offset="0%" style="stop-color:#FFD700;stop-opacity:1" />
      <stop offset="50%" style="stop-color:#FFC649;stop-opacity:1" />
      <stop offset="100%" style="stop-color:#FFB347;stop-opacity:1" />
    </linearGradient>
  </defs>
  
  <!-- Main B shape with rounded corners -->
  <path d="M10 15 Q10 10 15 10 L85 10 Q95 10 100 20 Q105 25 100 35 L95 40 Q100 45 95 55 Q90 65 80 70 L15 70 Q10 70 10 65 Z" 
        fill="url(#orangeGradient)" stroke="none"/>
  
  <!-- Inner B shape (lighter) -->
  <path d="M25 25 L75 25 Q80 25 82 30 Q80 35 75 35 L70 35 Q75 35 77 40 Q75 45 70 45 L25 45 Z" 
        fill="url(#yellowGradient)" stroke="none"/>
  
  <!-- Bookmark/ribbon detail on top -->
  <path d="M70 10 L70 25 L75 20 L80 25 L80 10 Z" 
        fill="#B8342A" stroke="none"/>
  
  <!-- Bookmark/ribbon detail on bottom -->
  <path d="M70 45 L70 60 L75 55 L80 60 L80 45 Z" 
        fill="#B8342A" stroke="none"/>
</svg>
